<?xml version="1.0" encoding="UTF-8" standalone="no"?>
<!-- Created with Inkscape (http://www.inkscape.org/) -->

<svg
   width="91.444527mm"
   height="79.218102mm"
   viewBox="0 0 91.444527 79.218102"
   version="1.1"
   id="svg1"
   inkscape:version="1.3.2 (091e20ef0f, 2023-11-25, custom)"
   sodipodi:docname="greenDoorLogo.svg"
   xmlns:inkscape="http://www.inkscape.org/namespaces/inkscape"
   xmlns:sodipodi="http://sodipodi.sourceforge.net/DTD/sodipodi-0.dtd"
   xmlns="http://www.w3.org/2000/svg"
   xmlns:svg="http://www.w3.org/2000/svg">
  <sodipodi:namedview
     id="namedview1"
     pagecolor="#ffffff"
     bordercolor="#000000"
     borderopacity="0.25"
     inkscape:showpageshadow="2"
     inkscape:pageopacity="0.0"
     inkscape:pagecheckerboard="0"
     inkscape:deskcolor="#d1d1d1"
     inkscape:document-units="mm"
     inkscape:zoom="0.37059484"
     inkscape:cx="644.90915"
     inkscape:cy="264.43973"
     inkscape:window-width="1920"
     inkscape:window-height="1036"
     inkscape:window-x="0"
     inkscape:window-y="20"
     inkscape:window-maximized="1"
     inkscape:current-layer="path4" />
  <defs
     id="defs1" />
  <g
     inkscape:label="Layer 1"
     inkscape:groupmode="layer"
     id="layer1"
     transform="translate(-222.3245,-49.896594)">
    <g
       id="path4"
       transform="translate(4.9975962,-75.677885)">
      <path
         style="color:#000000;fill:none;stroke:#ffffff;stroke-width:4.8;stroke-linecap:round;stroke-linejoin:round;stroke-dasharray:none;stroke-opacity:1"
         d="m 227.39682,127.97448 c -4.23646,6.9e-4 -7.67031,3.43541 -7.66992,7.67187 v 21.94336 c -3.9e-4,4.23646 3.43346,7.67119 7.66992,7.67188 h 0.18945 l 6.42383,30.76171 c 0.73934,3.53734 3.84723,6.07897 7.46094,6.10157 l 43.97851,0.26757 c 3.71595,0.0226 6.91378,-2.62138 7.58985,-6.27539 l 5.71484,-30.87695 c 4.20749,-0.0296 7.6059,-3.44282 7.61719,-7.65039 v -21.94336 c 3.9e-4,-4.23646 -3.43346,-7.67118 -7.66992,-7.67187 z"
         id="path6"
         sodipodi:nodetypes="cccscccccccccc" />
      <path
         style="fill:none;fill-opacity:1;stroke:#ffffff;stroke-width:4.79999;stroke-linecap:round;stroke-linejoin:round;stroke-dasharray:none;stroke-opacity:1"
         d="m 298.78484,165.27764 -50.63091,0.17849"
         id="path7"
         sodipodi:nodetypes="cc" />
    </g>
  </g>
</svg>
